<svg width="32" height="32" viewBox="0 0 32 32" fill="none" xmlns="http://www.w3.org/2000/svg">
<path fill-rule="evenodd" clip-rule="evenodd" d="M11.7078 11.292C11.801 11.3849 11.8748 11.4953 11.9253 11.6167C11.9757 11.7382 12.0016 11.8685 12.0016 12C12.0016 12.1316 11.9757 12.2618 11.9253 12.3833C11.8748 12.5048 11.801 12.6151 11.7078 12.708L6.41383 18L11.7078 23.292C11.8956 23.4798 12.0011 23.7345 12.0011 24C12.0011 24.2656 11.8956 24.5202 11.7078 24.708C11.5201 24.8958 11.2654 25.0013 10.9998 25.0013C10.7343 25.0013 10.4796 24.8958 10.2918 24.708L4.29183 18.708C4.19871 18.6151 4.12482 18.5048 4.07441 18.3833C4.024 18.2618 3.99805 18.1316 3.99805 18C3.99805 17.8685 4.024 17.7382 4.07441 17.6168C4.12482 17.4953 4.19871 17.3849 4.29183 17.292L10.2918 11.292C10.3847 11.1989 10.4951 11.125 10.6166 11.0746C10.7381 11.0242 10.8683 10.9982 10.9998 10.9982C11.1314 10.9982 11.2616 11.0242 11.3831 11.0746C11.5046 11.125 11.6149 11.1989 11.7078 11.292V11.292Z" fill="black"/>
<path fill-rule="evenodd" clip-rule="evenodd" d="M27 5C27.2652 5 27.5196 5.10536 27.7071 5.29289C27.8946 5.48043 28 5.73478 28 6V14C28 15.3261 27.4732 16.5979 26.5355 17.5355C25.5979 18.4732 24.3261 19 23 19H6C5.73478 19 5.48043 18.8946 5.29289 18.7071C5.10536 18.5196 5 18.2652 5 18C5 17.7348 5.10536 17.4804 5.29289 17.2929C5.48043 17.1054 5.73478 17 6 17H23C23.7956 17 24.5587 16.6839 25.1213 16.1213C25.6839 15.5587 26 14.7956 26 14V6C26 5.73478 26.1054 5.48043 26.2929 5.29289C26.4804 5.10536 26.7348 5 27 5V5Z" fill="black"/>
</svg>
