<svg width="23" height="23" viewBox="0 0 23 23" fill="none" xmlns="http://www.w3.org/2000/svg">
<g clip-path="url(#clip0)">
<path d="M11.9646 1.41451C11.9276 1.32152 11.8635 1.24178 11.7807 1.1856C11.6979 1.12941 11.6001 1.09938 11.5 1.09938C11.3999 1.09938 11.3021 1.12941 11.2193 1.1856C11.1365 1.24178 11.0724 1.32152 11.0354 1.41451L5.37858 15.5566C5.3409 15.6508 5.33275 15.7542 5.35521 15.8531C5.37766 15.952 5.42966 16.0417 5.5043 16.1104C5.57894 16.179 5.6727 16.2234 5.77312 16.2375C5.87355 16.2516 5.9759 16.2349 6.06659 16.1895L11.5 13.4728L16.9327 16.1902C17.0235 16.236 17.126 16.253 17.2267 16.2389C17.3274 16.2249 17.4214 16.1805 17.4962 16.1117C17.5711 16.0429 17.6231 15.9529 17.6455 15.8537C17.6679 15.7546 17.6595 15.6509 17.6214 15.5566L11.9646 1.41451V1.41451Z" fill="black"/>
</g>
<defs>
<clipPath id="clip0">
<rect width="15" height="15" fill="white" transform="translate(11.5 0.893372) rotate(45)"/>
</clipPath>
</defs>
</svg>
