<svg width="16" height="16" viewBox="0 0 16 16" fill="none" xmlns="http://www.w3.org/2000/svg">
<path d="M13.4996 8.38002V8.00002V7.61502L14.4596 6.77502C14.6366 6.61905 14.7527 6.40553 14.7875 6.17222C14.8223 5.93891 14.7734 5.70081 14.6496 5.50002L13.4696 3.50002C13.382 3.34815 13.2559 3.22201 13.1041 3.13425C12.9522 3.04649 12.78 3.0002 12.6046 3.00002C12.496 2.99919 12.3879 3.01608 12.2846 3.05002L11.0696 3.46002C10.8599 3.32062 10.6411 3.19535 10.4146 3.08502L10.1596 1.82502C10.1139 1.59482 9.98868 1.38804 9.80587 1.24087C9.62305 1.0937 9.39429 1.01552 9.15964 1.02002H6.81964C6.58499 1.01552 6.35623 1.0937 6.17341 1.24087C5.99059 1.38804 5.86536 1.59482 5.81964 1.82502L5.56464 3.08502C5.3366 3.19532 5.11612 3.32059 4.90464 3.46002L3.71464 3.03002C3.61029 3.00283 3.50222 2.9927 3.39464 3.00002C3.21928 3.0002 3.04704 3.04649 2.89522 3.13425C2.7434 3.22201 2.61732 3.34815 2.52964 3.50002L1.34964 5.50002C1.23293 5.70051 1.18956 5.93535 1.22696 6.1643C1.26436 6.39326 1.3802 6.60208 1.55464 6.75502L2.49964 7.62002V8.38502L1.55464 9.22502C1.37527 9.37902 1.25627 9.59158 1.21874 9.82499C1.18121 10.0584 1.22759 10.2976 1.34964 10.5L2.52964 12.5C2.61732 12.6519 2.7434 12.778 2.89522 12.8658C3.04704 12.9535 3.21928 12.9998 3.39464 13C3.50331 13.0009 3.6114 12.984 3.71464 12.95L4.92964 12.54C5.13941 12.6794 5.35823 12.8047 5.58464 12.915L5.83964 14.175C5.88536 14.4052 6.01059 14.612 6.19341 14.7592C6.37623 14.9063 6.60499 14.9845 6.83964 14.98H9.19964C9.43429 14.9845 9.66305 14.9063 9.84587 14.7592C10.0287 14.612 10.1539 14.4052 10.1996 14.175L10.4546 12.915C10.6827 12.8047 10.9032 12.6794 11.1146 12.54L12.3246 12.95C12.4279 12.984 12.536 13.0009 12.6446 13C12.82 12.9998 12.9922 12.9535 13.1441 12.8658C13.2959 12.778 13.422 12.6519 13.5096 12.5L14.6496 10.5C14.7663 10.2995 14.8097 10.0647 14.7723 9.83574C14.7349 9.60678 14.6191 9.39796 14.4446 9.24502L13.4996 8.38002ZM12.6046 12L10.8896 11.42C10.4882 11.7601 10.0293 12.0259 9.53464 12.205L9.17964 14H6.81964L6.46464 12.225C5.97385 12.0408 5.5175 11.7754 5.11464 11.44L3.39464 12L2.21464 10L3.57464 8.80002C3.48219 8.28245 3.48219 7.75259 3.57464 7.23502L2.21464 6.00002L3.39464 4.00002L5.10964 4.58002C5.51111 4.23997 5.96994 3.97415 6.46464 3.79502L6.81964 2.00002H9.17964L9.53464 3.77502C10.0254 3.95923 10.4818 4.22459 10.8846 4.56002L12.6046 4.00002L13.7846 6.00002L12.4246 7.20002C12.5171 7.71759 12.5171 8.24745 12.4246 8.76502L13.7846 10L12.6046 12Z" fill="black"/>
<path d="M8 11C7.40666 11 6.82664 10.8241 6.33329 10.4944C5.83994 10.1648 5.45543 9.69623 5.22836 9.14805C5.0013 8.59987 4.94189 7.99667 5.05765 7.41473C5.1734 6.83279 5.45912 6.29824 5.87868 5.87868C6.29824 5.45912 6.83279 5.1734 7.41473 5.05765C7.99667 4.94189 8.59987 5.0013 9.14805 5.22836C9.69623 5.45543 10.1648 5.83994 10.4944 6.33329C10.8241 6.82664 11 7.40666 11 8C11.004 8.39508 10.9292 8.78699 10.7798 9.15278C10.6305 9.51857 10.4096 9.85088 10.1303 10.1303C9.85088 10.4096 9.51857 10.6305 9.15278 10.7798C8.78699 10.9292 8.39508 11.004 8 11V11ZM8 6C7.73567 5.99384 7.47284 6.04137 7.22741 6.1397C6.98197 6.23803 6.75904 6.38512 6.57208 6.57208C6.38512 6.75904 6.23803 6.98197 6.1397 7.22741C6.04137 7.47284 5.99384 7.73567 6 8C5.99384 8.26433 6.04137 8.52716 6.1397 8.77259C6.23803 9.01803 6.38512 9.24097 6.57208 9.42793C6.75904 9.61488 6.98197 9.76198 7.22741 9.86031C7.47284 9.95864 7.73567 10.0062 8 10C8.26433 10.0062 8.52716 9.95864 8.77259 9.86031C9.01803 9.76198 9.24097 9.61488 9.42793 9.42793C9.61488 9.24097 9.76198 9.01803 9.86031 8.77259C9.95864 8.52716 10.0062 8.26433 10 8C10.0062 7.73567 9.95864 7.47284 9.86031 7.22741C9.76198 6.98197 9.61488 6.75904 9.42793 6.57208C9.24097 6.38512 9.01803 6.23803 8.77259 6.1397C8.52716 6.04137 8.26433 5.99384 8 6Z" fill="black"/>
</svg>
