<svg width="48" height="48" viewBox="0 0 48 48" fill="none" xmlns="http://www.w3.org/2000/svg">
<path d="M11.0244 33.3L14.6244 29.625C13.3494 29.325 12.1494 28.875 11.0994 28.125L11.0244 33.3Z" fill="#E06E1A"/>
<path d="M22.725 4.95007L19.125 8.62507C20.4 8.92507 21.6 9.37507 22.65 10.1251L22.725 4.95007Z" fill="#E06E1A"/>
<path d="M2.70117 24.975L7.87617 24.9C7.20117 23.85 6.67617 22.65 6.37617 21.375L2.70117 24.975Z" fill="#E06E1A"/>
<path d="M31.05 13.275L25.875 13.35C26.55 14.4 27.075 15.6 27.375 16.875L31.05 13.275Z" fill="#E06E1A"/>
<path d="M2.70117 13.275L6.37617 16.875C6.67617 15.6 7.12617 14.4 7.87617 13.35L2.70117 13.275Z" fill="#E06E1A"/>
<path d="M31.05 24.975L27.375 21.375C27.075 22.65 26.625 23.85 25.875 24.9L31.05 24.975Z" fill="#E06E1A"/>
<path d="M11.0244 4.95007L11.0994 10.1251C12.1494 9.45007 13.3494 8.92507 14.6244 8.62507L11.0244 4.95007Z" fill="#E06E1A"/>
<path d="M22.725 33.3L22.65 28.125C21.6 28.8 20.4 29.325 19.125 29.625L22.725 33.3Z" fill="#E06E1A"/>
<path d="M8.025 25.275L6 30L10.725 27.975C9.675 27.225 8.775 26.325 8.025 25.275Z" fill="#E06E1A"/>
<path d="M25.7244 12.975L27.7494 8.25L23.0244 10.275C24.0744 11.025 24.9744 11.925 25.7244 12.975Z" fill="#E06E1A"/>
<path d="M6.3 17.1749L1.5 19.1249L6.3 21.0749C6.225 20.4749 6.15 19.7999 6.15 19.1249C6.075 18.4499 6.15 17.8499 6.3 17.1749Z" fill="#E06E1A"/>
<path d="M27.4512 21.0749L32.2512 19.1249L27.4512 17.1749C27.6012 17.7749 27.6012 18.4499 27.6012 19.1249C27.6012 19.7999 27.6012 20.3999 27.4512 21.0749Z" fill="#E06E1A"/>
<path d="M10.725 10.275L6 8.25L8.025 12.975C8.775 11.925 9.675 11.025 10.725 10.275Z" fill="#E06E1A"/>
<path d="M23.0244 27.975L27.7494 30L25.7244 25.275C24.9744 26.325 24.0744 27.225 23.0244 27.975Z" fill="#E06E1A"/>
<path d="M18.8238 8.55L16.8738 3.75L14.9238 8.55C15.5238 8.475 16.1988 8.4 16.8738 8.4C17.5488 8.325 18.1488 8.4 18.8238 8.55Z" fill="#E06E1A"/>
<path d="M14.9238 29.7001L16.8738 34.5001L18.8238 29.7001C18.2238 29.7751 17.5488 29.8501 16.8738 29.8501C16.1988 29.8501 15.5988 29.8501 14.9238 29.7001Z" fill="#E06E1A"/>
<path d="M16.875 28.875C22.2598 28.875 26.625 24.5098 26.625 19.125C26.625 13.7402 22.2598 9.375 16.875 9.375C11.4902 9.375 7.125 13.7402 7.125 19.125C7.125 24.5098 11.4902 28.875 16.875 28.875Z" fill="#E06E1A"/>
<path d="M12.8988 42.8249C12.1488 42.8249 11.3988 42.6749 10.7238 42.4499C7.87383 41.4749 5.92383 38.7749 5.92383 35.6999C5.92383 33.6749 6.82383 31.6499 8.32383 30.2999C8.69883 29.9249 9.14883 29.6249 9.59883 29.3999L10.0488 27.7499C11.1738 23.6249 14.9238 20.7749 19.1238 20.7749C19.5738 20.7749 19.9488 20.7749 20.4738 20.8499L21.5988 21.0749L21.7488 20.6999C23.4738 17.5499 26.6988 15.6749 30.1488 15.6749C35.4738 15.6749 39.7488 20.0999 39.7488 25.4999V26.4749C40.1238 26.6249 40.5738 26.8499 40.9488 27.0749C43.4988 28.5749 45.0738 31.4249 45.0738 34.4249C45.0738 38.3999 42.4488 41.7749 38.6238 42.6749C38.0238 42.8249 37.3488 42.8999 36.7488 42.8999H12.8988V42.8249Z" fill="white"/>
<path d="M30.225 17.1C34.725 17.1 38.4 20.85 38.4 25.5V26.175C36.525 26.325 34.8 27.075 33.45 28.275C34.425 27.675 35.625 27.375 36.9 27.375C37.35 27.375 37.8 27.45 38.25 27.525C39 27.675 39.675 27.975 40.35 28.35C42.375 29.55 43.8 31.8 43.8 34.425C43.8 37.725 41.55 40.575 38.475 41.25C37.95 41.4 37.5 41.4 36.9 41.4H12.9C12.3 41.4 11.7 41.325 11.175 41.1C8.925 40.35 7.35 38.175 7.35 35.7C7.35 33.975 8.1 32.475 9.3 31.425C9.825 30.975 10.425 30.6 11.1 30.3C11.7 30.075 12.3 30 12.975 30C14.775 30 16.35 30.9 17.4 32.25H17.475C16.275 30 14.1 28.425 11.475 28.2C12.45 24.75 15.525 22.2 19.2 22.2C19.575 22.2 19.95 22.275 20.325 22.275C21.075 22.35 21.75 22.575 22.425 22.875C24.9 24 26.7 26.4 27.15 29.25V29.175C27.15 25.95 25.5 23.1 23.1 21.45C24.45 18.825 27.075 17.1 30.225 17.1ZM30.225 14.25C26.475 14.25 22.95 16.2 20.925 19.5H20.7C20.1 19.425 19.65 19.35 19.125 19.35C14.325 19.35 9.975 22.65 8.7 27.375L8.325 28.5C7.95 28.725 7.65 28.95 7.35 29.25C5.55 30.825 4.5 33.225 4.5 35.7C4.5 39.375 6.825 42.675 10.275 43.8C11.1 44.1 12 44.25 12.9 44.25H36.825C37.575 44.25 38.25 44.175 39 44.025C43.425 42.975 46.5 39 46.5 34.425C46.5 30.9 44.625 27.6 41.625 25.875L41.175 25.65V25.575C41.175 19.275 36.3 14.25 30.225 14.25Z" fill="#447BA4"/>
</svg>
